<svg xmlns="http://www.w3.org/2000/svg" width="35.928" height="35.928" viewBox="0 0 35.928 35.928">
  <path id="close" d="M33.138,26.711h0l-9.358-9.358,9.358-9.358h0a.966.966,0,0,0,0-1.363L28.717,2.21a.967.967,0,0,0-1.363,0h0L18,11.568,8.637,2.21h0a.966.966,0,0,0-1.363,0L2.852,6.631a.966.966,0,0,0,0,1.363h0l9.358,9.358L2.852,26.711h0a.966.966,0,0,0,0,1.363l4.421,4.421a.966.966,0,0,0,1.363,0h0L18,23.136l9.358,9.358h0a.966.966,0,0,0,1.363,0l4.421-4.421a.966.966,0,0,0,0-1.363Z" transform="translate(-0.031 0.612)" stroke="#fff" stroke-width="5" opacity="0.36"/>
</svg>
